<svg width="95" height="150" viewBox="0 0 95 150" fill="none" xmlns="http://www.w3.org/2000/svg">
<path d="M88.8514 61.1474C81.2049 53.5009 68.8 53.5009 61.1474 61.1474C53.4948 68.8 41.0961 68.8 33.4434 61.1474C25.7908 53.5009 25.7908 41.0961 33.4434 33.4434C41.0961 25.7908 41.0961 13.3921 33.4434 5.73947C25.7908 -1.91316 13.3921 -1.91316 5.73947 5.73947C-1.91316 13.3921 -1.91316 25.7908 5.73947 33.4434C13.3915 41.0961 13.3915 53.5009 5.73947 61.1474C-1.91316 68.8 -1.91316 81.2049 5.73947 88.8514C13.3915 96.504 25.7908 96.504 33.4434 88.8514C41.0961 81.2049 53.4948 81.2049 61.1474 88.8514C68.8 96.504 68.8 108.909 61.1474 116.555C53.4948 124.208 41.0961 124.208 33.4434 116.555C25.7908 108.909 13.3921 108.909 5.73947 116.555C-1.91316 124.208 -1.91316 136.613 5.73947 144.259C13.3915 151.912 25.7908 151.912 33.4434 144.259C41.0961 136.613 53.4948 136.613 61.1474 144.259C68.8 151.912 81.2049 151.912 88.8514 144.259C96.5034 136.613 96.5034 124.208 88.8514 116.555C81.2049 108.909 81.2049 96.504 88.8514 88.8514C96.5034 81.2049 96.5034 68.8 88.8514 61.1474Z" fill="black"/>
</svg>
