<svg width="168" height="150" viewBox="0 0 168 150" fill="none" xmlns="http://www.w3.org/2000/svg">
<g clip-path="url(#clip0_5_115)">
<path d="M18.4135 64.1742C14.1999 59.9645 7.37321 59.9645 3.16042 64.1742C-1.05315 68.3878 -1.05315 75.2176 3.16042 79.428C7.37398 83.6416 14.2007 83.6416 18.4135 79.428C22.627 75.2184 29.4538 75.2184 33.6673 79.428C37.8809 83.6416 44.7107 83.6416 48.9212 79.428C53.1347 75.2184 53.1347 68.3878 48.9212 64.1742C44.7107 59.9645 44.7107 53.1339 48.9212 48.9211C53.1347 44.7115 53.1347 37.8809 48.9212 33.6673C44.7107 29.4576 37.8809 29.4576 33.6673 33.6673C29.4538 37.8809 22.627 37.8809 18.4135 33.6673C14.1999 29.4576 14.1999 22.627 18.4135 18.4135C22.627 14.1999 22.627 7.37318 18.4135 3.15962C14.1999 -1.05317 7.37321 -1.05317 3.16042 3.16039C-1.05315 7.37396 -1.05315 14.2007 3.16042 18.4142C7.37398 22.6278 7.37398 29.4576 3.16042 33.6681C-1.05315 37.8816 -1.05315 44.7115 3.16042 48.9219C7.37398 53.1355 14.2007 53.1355 18.4135 48.9219C22.627 44.7122 29.4538 44.7122 33.6673 48.9219C37.8809 53.1355 37.8809 59.9653 33.6673 64.175C29.4538 68.3885 22.627 68.3878 18.4135 64.1742Z" fill="black"/>
<path d="M23.329 122.88C24.4422 121.845 25.0026 120.405 25.0026 118.583C25.0026 117.447 24.738 116.458 24.2164 115.649C23.7416 114.917 23.0955 114.302 22.286 113.835C22.9243 113.298 23.4302 112.66 23.7805 111.928C24.1697 111.118 24.3721 110.208 24.3721 109.235C24.3721 107.701 23.8739 106.432 22.8853 105.444C21.8968 104.455 20.2854 103.957 18.0903 103.957H0.373657V124.437H18.2382C20.5034 124.437 22.2159 123.915 23.329 122.888V122.88ZM4.40583 107.468H16.8137C17.6778 107.468 18.3316 107.506 18.7675 107.592C19.1723 107.67 19.4915 107.872 19.7406 108.223C19.9896 108.573 20.122 109.149 20.122 109.943C20.122 110.737 19.9974 111.313 19.7406 111.648C19.4915 111.982 19.1723 112.185 18.7675 112.263C18.3316 112.348 17.6778 112.387 16.8137 112.387H4.40583V107.46V107.468ZM4.40583 120.919V115.789H17.4442C18.2849 115.789 18.9388 115.828 19.3669 115.913C19.7717 115.991 20.0908 116.201 20.3399 116.567C20.5968 116.933 20.7213 117.532 20.7213 118.35C20.7213 119.167 20.589 119.766 20.3399 120.132C20.0908 120.498 19.7717 120.708 19.3669 120.786C18.931 120.872 18.2849 120.911 17.4442 120.911H4.40583V120.919Z" fill="black"/>
<path d="M50.3243 120.887H32.81V115.96H49.7483V112.426H32.81V107.522H50.3243V103.957H28.7856V124.429H50.3243V120.887Z" fill="black"/>
<path d="M65.5734 124.429H69.8625V117.711L82.1303 103.957H76.8059L67.7296 114.216L58.6845 104.011L58.63 103.957H53.3057L65.5734 117.711V124.429Z" fill="black"/>
<path d="M85.5241 122.125C87.7193 124.032 91.0275 125.005 95.3399 125.005C99.6523 125.005 102.929 124.04 105.132 122.125C107.335 120.21 108.456 117.532 108.456 114.177C108.456 110.823 107.335 108.153 105.132 106.245C102.937 104.346 99.6368 103.381 95.3399 103.381C91.0431 103.381 87.7193 104.346 85.5241 106.245C83.3212 108.153 82.2003 110.823 82.2003 114.177C82.2003 117.532 83.3212 120.21 85.5241 122.125ZM88.7468 108.744C90.2413 107.592 92.4598 107.008 95.3477 107.008C101.287 107.008 104.175 109.351 104.175 114.177C104.175 119.004 101.287 121.378 95.3477 121.378C89.4084 121.378 86.5205 119.019 86.5205 114.177C86.5205 111.71 87.2678 109.881 88.7545 108.744H88.7468Z" fill="black"/>
<path d="M133.895 120.311L118.07 104.011L118.015 103.957H112.527V124.429H116.552V108.075L132.369 124.375L132.424 124.429H137.919V103.957H133.895V120.311Z" fill="black"/>
<path d="M166.059 108.534C165.156 107.001 163.934 105.841 162.423 105.086C160.913 104.331 159.216 103.949 157.364 103.949H142.792V124.429H157.364C159.216 124.429 160.913 124.048 162.423 123.293C163.934 122.538 165.163 121.378 166.059 119.844C166.962 118.319 167.413 116.419 167.413 114.201C167.413 111.982 166.954 110.06 166.059 108.526V108.534ZM162.299 118.28C161.754 119.222 160.937 119.875 159.862 120.241C158.773 120.615 157.301 120.802 155.503 120.802H146.816V107.577H155.503C157.301 107.577 158.773 107.763 159.862 108.137C160.929 108.503 161.746 109.164 162.299 110.099C162.852 111.048 163.132 112.426 163.132 114.201C163.132 115.976 162.852 117.322 162.299 118.272V118.28Z" fill="black"/>
<path d="M31.1754 145.524L24.2242 128.952H18.5496L11.1235 145.524L4.35911 129.061L4.3124 128.952H0L8.51583 149.315L8.56253 149.424H13.6066L21.3518 132.221L28.6456 149.424H33.6663L42.7504 128.952H38.4302L31.1754 145.524Z" fill="black"/>
<path d="M66.8501 131.24C64.655 129.341 61.3545 128.376 57.0577 128.376C52.7609 128.376 49.437 129.341 47.2419 131.24C45.039 133.147 43.9181 135.817 43.9181 139.172C43.9181 142.527 45.039 145.205 47.2419 147.12C49.437 149.027 52.7453 150 57.0577 150C61.3701 150 64.6472 149.035 66.8501 147.12C69.053 145.205 70.1739 142.527 70.1739 139.172C70.1739 135.817 69.053 133.147 66.8501 131.24ZM57.0655 146.373C51.1262 146.373 48.2383 144.014 48.2383 139.172C48.2383 136.705 48.9856 134.875 50.4723 133.739C51.9669 132.587 54.1853 132.003 57.0733 132.003C63.0125 132.003 65.9005 134.346 65.9005 139.172C65.9005 143.998 63.0125 146.373 57.0733 146.373H57.0655Z" fill="black"/>
<path d="M97.4105 135.195C97.4105 133.062 96.6944 131.466 95.2854 130.454C93.8999 129.45 91.9305 128.944 89.4396 128.944H74.2372V149.424H78.2616V142.644H90.5216C91.2766 142.644 91.8526 142.714 92.2185 142.846C92.561 142.971 92.7945 143.181 92.9269 143.492C93.067 143.819 93.137 144.333 93.137 145.01V149.424H97.1381V144.123C97.1381 143.057 96.8656 142.177 96.3285 141.515C95.8848 140.978 95.2699 140.597 94.4992 140.394C96.4219 139.398 97.3949 137.654 97.3949 135.195H97.4105ZM92.4598 138.036C92.0083 138.511 91.4868 138.806 90.8874 138.908C90.2647 139.017 89.4551 139.079 88.5055 139.079H78.2771V132.548H88.5055C89.4629 132.548 90.2647 132.603 90.8874 132.719C91.4868 132.828 92.0161 133.124 92.4598 133.591C92.9035 134.058 93.1215 134.805 93.1215 135.794C93.1215 136.783 92.8957 137.561 92.4598 138.028V138.036Z" fill="black"/>
<path d="M120.685 128.952L106.051 140.402V128.952H102.026V149.424H106.051V145.415L112.122 140.675L121.3 149.424H127.006L115.275 138.184L127.084 128.952H120.685Z" fill="black"/>
<path d="M136.86 131.715H135.747V133.326H136.884C137.25 133.326 137.545 133.256 137.763 133.116C137.981 132.976 138.09 132.782 138.09 132.525C138.09 132.268 138.005 132.073 137.826 131.933C137.654 131.793 137.327 131.715 136.86 131.715Z" fill="black"/>
<path d="M140.916 131.692C140.682 131.147 140.363 130.672 139.951 130.267C139.546 129.863 139.071 129.543 138.526 129.302C137.981 129.069 137.397 128.952 136.783 128.952C136.168 128.952 135.584 129.069 135.039 129.302C134.494 129.536 134.027 129.855 133.622 130.267C133.217 130.672 132.898 131.147 132.657 131.692C132.423 132.237 132.307 132.82 132.307 133.435C132.307 134.05 132.423 134.634 132.657 135.179C132.89 135.724 133.21 136.191 133.622 136.596C134.027 137.001 134.502 137.32 135.039 137.561C135.576 137.795 136.16 137.911 136.783 137.911C137.405 137.911 137.981 137.795 138.526 137.561C139.071 137.327 139.546 137.008 139.951 136.596C140.355 136.191 140.675 135.716 140.916 135.179C141.149 134.642 141.266 134.058 141.266 133.435C141.266 132.813 141.149 132.237 140.916 131.692ZM138.884 134.875C138.908 135.039 138.923 135.187 138.923 135.319V135.934H138.02V135.436C138.02 135.062 137.981 134.79 137.903 134.626C137.74 134.276 137.444 134.105 137.016 134.105H135.747V135.934H134.829V130.937H136.946C137.654 130.937 138.168 131.069 138.495 131.342C138.822 131.614 138.985 131.972 138.985 132.416C138.985 132.712 138.9 132.976 138.721 133.21C138.55 133.443 138.308 133.607 138.005 133.7C138.487 133.84 138.775 134.229 138.884 134.875Z" fill="black"/>
</g>
<defs>
<clipPath id="clip0_5_115">
<rect width="167.419" height="150" fill="white"/>
</clipPath>
</defs>
</svg>
