<svg width="216" height="60" viewBox="0 0 216 60" fill="none" xmlns="http://www.w3.org/2000/svg">
<g clip-path="url(#clip0_139_129)">
<path d="M29.97 25.05C31.4 23.72 32.12 21.87 32.12 19.53C32.12 18.07 31.78 16.8 31.11 15.76C30.5 14.82 29.67 14.03 28.63 13.43C29.45 12.74 30.1 11.92 30.55 10.98C31.05 9.94 31.31 8.77 31.31 7.52C31.31 5.55 30.67 3.92 29.4 2.65C28.13 1.38 26.06 0.739998 23.24 0.739998H0.47998V27.05H23.43C26.34 27.05 28.54 26.38 29.97 25.06V25.05ZM5.65998 5.25H21.6C22.71 5.25 23.55 5.3 24.11 5.41C24.63 5.51 25.04 5.77 25.36 6.22C25.68 6.67 25.85 7.41 25.85 8.43C25.85 9.45 25.69 10.19 25.36 10.62C25.04 11.05 24.63 11.31 24.11 11.41C23.55 11.52 22.71 11.57 21.6 11.57H5.65998V5.24V5.25ZM5.65998 22.53V15.94H22.41C23.49 15.94 24.33 15.99 24.88 16.1C25.4 16.2 25.81 16.47 26.13 16.94C26.46 17.41 26.62 18.18 26.62 19.23C26.62 20.28 26.45 21.05 26.13 21.52C25.81 21.99 25.4 22.26 24.88 22.36C24.32 22.47 23.49 22.52 22.41 22.52H5.65998V22.53Z" fill="white"/>
<path d="M64.65 22.49H42.15V16.16H63.91V11.61H42.15V5.32H64.65V0.730003H36.98V27.04H64.65V22.49Z" fill="white"/>
<path d="M84.24 27.04H89.75V18.41L105.51 0.730003H98.67L87.01 13.92L75.39 0.810003L75.32 0.730003H68.48L84.24 18.41V27.04Z" fill="white"/>
<path d="M109.87 24.08C112.69 26.53 116.94 27.78 122.48 27.78C128.02 27.78 132.23 26.54 135.06 24.08C137.89 21.62 139.33 18.18 139.33 13.87C139.33 9.56 137.89 6.13 135.06 3.68C132.24 1.24 128 0 122.48 0C116.96 0 112.69 1.24 109.87 3.68C107.04 6.13 105.6 9.56 105.6 13.87C105.6 18.18 107.04 21.62 109.87 24.08ZM114.01 6.89C115.93 5.41 118.78 4.66 122.49 4.66C130.12 4.66 133.83 7.67 133.83 13.87C133.83 20.07 130.12 23.12 122.49 23.12C114.86 23.12 111.15 20.09 111.15 13.87C111.15 10.7 112.11 8.35 114.02 6.89H114.01Z" fill="white"/>
<path d="M172.01 21.74L151.68 0.810003L151.61 0.730003H144.56V27.04H149.73V6.03L170.05 26.97L170.12 27.04H177.18V0.730003H172.01V21.74Z" fill="white"/>
<path d="M213.33 6.62C212.17 4.65 210.6 3.16 208.66 2.19C206.72 1.22 204.54 0.730003 202.16 0.730003H183.44V27.04H202.16C204.54 27.04 206.72 26.55 208.66 25.58C210.6 24.61 212.18 23.12 213.33 21.15C214.49 19.19 215.07 16.75 215.07 13.9C215.07 11.05 214.48 8.58 213.33 6.61V6.62ZM208.5 19.14C207.8 20.35 206.75 21.19 205.37 21.66C203.97 22.14 202.08 22.38 199.77 22.38H188.61V5.39H199.77C202.08 5.39 203.97 5.63 205.37 6.11C206.74 6.58 207.79 7.43 208.5 8.63C209.21 9.85 209.57 11.62 209.57 13.9C209.57 16.18 209.21 17.91 208.5 19.13V19.14Z" fill="white"/>
<path d="M40.05 54.13L31.12 32.85H23.83L14.29 54.14L5.6 32.99L5.54 32.85H0L10.94 59.01L11 59.15H17.48L27.43 37.05L36.8 59.15H43.25L54.92 32.85H49.37L40.05 54.13Z" fill="white"/>
<path d="M85.88 35.79C83.06 33.35 78.82 32.11 73.3 32.11C67.78 32.11 63.51 33.35 60.69 35.79C57.86 38.24 56.42 41.67 56.42 45.98C56.42 50.29 57.86 53.73 60.69 56.19C63.51 58.64 67.76 59.89 73.3 59.89C78.84 59.89 83.05 58.65 85.88 56.19C88.71 53.73 90.15 50.29 90.15 45.98C90.15 41.67 88.71 38.24 85.88 35.79ZM73.31 55.23C65.68 55.23 61.97 52.2 61.97 45.98C61.97 42.81 62.93 40.46 64.84 39C66.76 37.52 69.61 36.77 73.32 36.77C80.95 36.77 84.66 39.78 84.66 45.98C84.66 52.18 80.95 55.23 73.32 55.23H73.31Z" fill="white"/>
<path d="M125.14 40.87C125.14 38.13 124.22 36.08 122.41 34.78C120.63 33.49 118.1 32.84 114.9 32.84H95.37V59.15H100.54V50.44H116.29C117.26 50.44 118 50.53 118.47 50.7C118.91 50.86 119.21 51.13 119.38 51.53C119.56 51.95 119.65 52.61 119.65 53.48V59.15H124.79V52.34C124.79 50.97 124.44 49.84 123.75 48.99C123.18 48.3 122.39 47.81 121.4 47.55C123.87 46.27 125.12 44.03 125.12 40.87H125.14ZM118.78 44.52C118.2 45.13 117.53 45.51 116.76 45.64C115.96 45.78 114.92 45.86 113.7 45.86H100.56V37.47H113.7C114.93 37.47 115.96 37.54 116.76 37.69C117.53 37.83 118.21 38.21 118.78 38.81C119.35 39.41 119.63 40.37 119.63 41.64C119.63 42.91 119.34 43.91 118.78 44.51V44.52Z" fill="white"/>
<path d="M155.04 32.85L136.24 47.56V32.85H131.07V59.15H136.24V54L144.04 47.91L155.83 59.15H163.16L148.09 44.71L163.26 32.85H155.04Z" fill="white"/>
<path d="M175.82 36.39H174.39V38.46H175.85C176.32 38.46 176.7 38.37 176.98 38.19C177.26 38.01 177.4 37.76 177.4 37.43C177.4 37.1 177.29 36.85 177.06 36.67C176.84 36.49 176.42 36.39 175.82 36.39Z" fill="white"/>
<path d="M181.03 36.37C180.73 35.67 180.32 35.06 179.79 34.54C179.27 34.02 178.66 33.61 177.96 33.3C177.26 33 176.51 32.85 175.72 32.85C174.93 32.85 174.18 33 173.48 33.3C172.78 33.6 172.18 34.01 171.66 34.54C171.14 35.06 170.73 35.67 170.42 36.37C170.12 37.07 169.97 37.82 169.97 38.61C169.97 39.4 170.12 40.15 170.42 40.85C170.72 41.55 171.13 42.15 171.66 42.67C172.18 43.19 172.79 43.6 173.48 43.91C174.17 44.21 174.92 44.36 175.72 44.36C176.52 44.36 177.26 44.21 177.96 43.91C178.66 43.61 179.27 43.2 179.79 42.67C180.31 42.15 180.72 41.54 181.03 40.85C181.33 40.16 181.48 39.41 181.48 38.61C181.48 37.81 181.33 37.07 181.03 36.37ZM178.42 40.46C178.45 40.67 178.47 40.86 178.47 41.03V41.82H177.31V41.18C177.31 40.7 177.26 40.35 177.16 40.14C176.95 39.69 176.57 39.47 176.02 39.47H174.39V41.82H173.21V35.4H175.93C176.84 35.4 177.5 35.57 177.92 35.92C178.34 36.27 178.55 36.73 178.55 37.3C178.55 37.68 178.44 38.02 178.21 38.32C177.99 38.62 177.68 38.83 177.29 38.95C177.91 39.13 178.28 39.63 178.42 40.46Z" fill="white"/>
</g>
<defs>
<clipPath id="clip0_139_129">
<rect width="215.08" height="59.89" fill="white"/>
</clipPath>
</defs>
</svg>
