<svg width="123" height="150" viewBox="0 0 123 150" fill="none" xmlns="http://www.w3.org/2000/svg">
<g clip-path="url(#clip0_139_53)">
<path d="M88.8514 61.1474C81.2049 53.5009 68.8 53.5009 61.1474 61.1474C53.4948 68.8 41.0961 68.8 33.4434 61.1474C25.7908 53.5009 25.7908 41.0961 33.4434 33.4434C41.0961 25.7908 41.0961 13.3921 33.4434 5.73947C25.7908 -1.91316 13.3921 -1.91316 5.73947 5.73947C-1.91316 13.3921 -1.91316 25.7908 5.73947 33.4434C13.3915 41.0961 13.3915 53.5009 5.73947 61.1474C-1.91316 68.8 -1.91316 81.2049 5.73947 88.8514C13.3915 96.504 25.7908 96.504 33.4434 88.8514C41.0961 81.2049 53.4948 81.2049 61.1474 88.8514C68.8 96.504 68.8 108.909 61.1474 116.555C53.4948 124.208 41.0961 124.208 33.4434 116.555C25.7908 108.909 13.3921 108.909 5.73947 116.555C-1.91316 124.208 -1.91316 136.613 5.73947 144.259C13.3915 151.912 25.7908 151.912 33.4434 144.259C41.0961 136.613 53.4948 136.613 61.1474 144.259C68.8 151.912 81.2049 151.912 88.8514 144.259C96.5034 136.613 96.5034 124.208 88.8514 116.555C81.2049 108.909 81.2049 96.504 88.8514 88.8514C96.5034 81.2049 96.5034 68.8 88.8514 61.1474Z" fill="white"/>
<path d="M112.95 136.444H110.52V139.961H113.008C113.809 139.961 114.447 139.809 114.924 139.504C115.4 139.199 115.639 138.771 115.639 138.218C115.639 137.664 115.448 137.231 115.067 136.916C114.685 136.602 113.98 136.445 112.95 136.445L112.95 136.444Z" fill="white"/>
<path d="M121.816 136.401C121.301 135.21 120.6 134.17 119.714 133.284C118.827 132.397 117.788 131.697 116.596 131.182C115.405 130.667 114.131 130.41 112.778 130.41C111.425 130.41 110.157 130.667 108.975 131.182C107.793 131.697 106.758 132.397 105.872 133.284C104.985 134.17 104.284 135.21 103.77 136.401C103.255 137.593 102.998 138.866 102.998 140.219C102.998 141.572 103.255 142.841 103.77 144.023C104.284 145.205 104.985 146.239 105.872 147.125C106.758 148.012 107.792 148.713 108.975 149.227C110.157 149.742 111.424 149.999 112.778 149.999C114.132 149.999 115.405 149.742 116.596 149.227C117.788 148.712 118.827 148.012 119.714 147.125C120.6 146.239 121.301 145.205 121.816 144.023C122.33 142.84 122.588 141.573 122.588 140.219C122.588 138.865 122.33 137.593 121.816 136.401ZM117.383 143.365C117.441 143.728 117.469 144.052 117.469 144.338V145.682H115.496V144.595C115.496 143.776 115.41 143.184 115.238 142.823C114.876 142.06 114.228 141.678 113.294 141.678H110.52V145.682H108.518V134.757H113.151C114.695 134.757 115.824 135.053 116.54 135.644C117.255 136.235 117.612 137.017 117.612 137.989C117.612 138.637 117.422 139.214 117.04 139.719C116.658 140.225 116.134 140.582 115.467 140.792C116.515 141.097 117.155 141.955 117.384 143.366L117.383 143.365Z" fill="white"/>
</g>
<defs>
<clipPath id="clip0_139_53">
<rect width="122.588" height="150" fill="white"/>
</clipPath>
</defs>
</svg>
