<svg width="241" height="83" viewBox="0 0 241 83" fill="none" xmlns="http://www.w3.org/2000/svg">
<g clip-path="url(#clip0_139_199)">
<path d="M48.9422 33.6665C44.7294 29.4553 37.9 29.4553 33.6794 33.6665C29.4666 37.8778 22.6372 37.8778 18.4166 33.6665C14.2038 29.4553 14.2038 22.6286 18.4166 18.4096C22.6294 14.1983 22.6294 7.37161 18.4166 3.15259C14.2038 -1.05086 7.37443 -1.05086 3.16159 3.16038C-1.05126 7.37161 -1.05126 14.1983 3.16159 18.4173C7.37443 22.6286 7.37443 29.4631 3.16159 33.6743C-1.05126 37.8855 -1.05126 44.72 3.16159 48.9313C7.37443 53.1425 14.2038 53.1425 18.4244 48.9313C22.6372 44.72 29.4666 44.72 33.6872 48.9313C37.9 53.1425 37.9 59.977 33.6872 64.1882C29.4743 68.3995 22.645 68.3995 18.4244 64.1882C14.2115 59.977 7.38222 59.977 3.16159 64.1882C-1.05126 68.3995 -1.05126 75.234 3.16159 79.4452C7.37443 83.6564 14.2038 83.6564 18.4244 79.4452C22.6372 75.234 29.4666 75.234 33.6872 79.4452C37.9 83.6564 44.7371 83.6564 48.95 79.4452C53.1628 75.234 53.1628 68.4073 48.95 64.1882C44.7371 59.977 44.7371 53.1503 48.95 48.9313C53.1628 44.72 53.1628 37.8933 48.95 33.6743L48.9422 33.6665Z" fill="white"/>
<path d="M96.7475 52.909C97.861 51.8737 98.4217 50.4337 98.4217 48.6122C98.4217 47.4757 98.157 46.4871 97.6352 45.6775C97.1602 44.9458 96.5139 44.3309 95.704 43.8638C96.3426 43.3267 96.8487 42.6884 97.1991 41.9567C97.5885 41.1472 97.791 40.2364 97.791 39.2634C97.791 37.7299 97.2926 36.4611 96.3036 35.4725C95.3147 34.4839 93.7027 33.9857 91.5067 33.9857H73.7832V54.4659H91.6547C93.9208 54.4659 95.6339 53.9443 96.7475 52.9168V52.909ZM77.8092 37.4964H90.2219C91.0862 37.4964 91.7404 37.5353 92.1764 37.6209C92.5814 37.6988 92.9006 37.9012 93.1498 38.2514C93.399 38.6017 93.5314 39.1778 93.5314 39.9717C93.5314 40.7657 93.4068 41.3418 93.1498 41.6765C92.9006 42.0112 92.5814 42.2136 92.1764 42.2914C91.7404 42.377 91.0862 42.416 90.2219 42.416H77.8092V37.4886V37.4964ZM77.8092 50.9474V45.8177H90.8526C91.6936 45.8177 92.3478 45.8566 92.776 45.9422C93.181 46.02 93.5003 46.2302 93.7494 46.5961C94.0064 46.9619 94.131 47.5613 94.131 48.3786C94.131 49.196 93.9986 49.7954 93.7494 50.1612C93.5003 50.5271 93.181 50.7372 92.776 50.8151C92.34 50.9007 91.6936 50.9396 90.8526 50.9396H77.8092V50.9474Z" fill="white"/>
<path d="M123.746 50.9163H106.232V45.9889H123.177V42.4471H106.232V37.5509H123.746V33.9857H102.206V54.4581H123.746V50.9163Z" fill="white"/>
<path d="M139.008 54.4581H143.291V47.7403L155.572 33.9857H150.245L141.165 44.2452L132.117 34.0402L132.062 33.9857H126.736L139.008 47.7403V54.4581Z" fill="white"/>
<path d="M158.959 52.1539C161.155 54.0611 164.465 55.0341 168.779 55.0341C173.093 55.0341 176.371 54.0688 178.575 52.1539C180.779 50.239 181.9 47.5613 181.9 44.2063C181.9 40.8513 180.779 38.1814 178.575 36.2742C176.379 34.3749 173.077 33.4097 168.779 33.4097C164.48 33.4097 161.155 34.3749 158.959 36.2742C156.755 38.1814 155.634 40.8513 155.634 44.2063C155.634 47.5613 156.755 50.239 158.959 52.1539ZM162.183 38.773C163.678 37.6209 165.897 37.0371 168.786 37.0371C174.728 37.0371 177.617 39.3801 177.617 44.2063C177.617 49.0325 174.728 51.4067 168.786 51.4067C162.845 51.4067 159.956 49.0481 159.956 44.2063C159.956 41.7387 160.703 39.9094 162.191 38.773H162.183Z" fill="white"/>
<path d="M207.356 50.3402L191.525 34.0402L191.47 33.9857H185.973V54.4581H190.006V38.1035L205.83 54.4036L205.884 54.4581H211.382V33.9857H207.356V50.3402Z" fill="white"/>
<path d="M239.533 38.5628C238.629 37.0293 237.407 35.8695 235.896 35.1144C234.385 34.3593 232.688 33.9779 230.834 33.9779H216.257V54.458H230.834C232.688 54.458 234.385 54.0766 235.896 53.3216C237.407 52.5665 238.637 51.4067 239.533 49.8732C240.436 48.3475 240.888 46.4481 240.888 44.2297C240.888 42.0112 240.428 40.0885 239.533 38.555V38.5628ZM235.771 48.3086C235.226 49.2504 234.409 49.9043 233.334 50.2702C232.244 50.6438 230.772 50.8306 228.973 50.8306H220.283V37.6053H228.973C230.772 37.6053 232.244 37.7921 233.334 38.1658C234.401 38.5316 235.219 39.1933 235.771 40.1274C236.324 41.0771 236.605 42.4549 236.605 44.2297C236.605 46.0044 236.324 47.3511 235.771 48.3008V48.3086Z" fill="white"/>
<path d="M104.597 75.5531L97.643 58.9807H91.9662L84.5373 75.5531L77.7702 59.0896L77.7235 58.9807H73.4094L81.9286 79.344L81.9753 79.453H87.0214L94.7696 62.25L102.066 79.453H107.081L116.176 58.9807H111.855L104.597 75.5531Z" fill="white"/>
<path d="M140.285 61.2692C138.089 59.3698 134.788 58.4046 130.489 58.4046C126.191 58.4046 122.866 59.3698 120.67 61.2692C118.466 63.1763 117.344 65.8463 117.344 69.2012C117.344 72.5562 118.466 75.234 120.67 77.1489C122.866 79.056 126.175 80.029 130.489 80.029C134.803 80.029 138.082 79.0638 140.285 77.1489C142.489 75.234 143.611 72.5562 143.611 69.2012C143.611 65.8463 142.489 63.1763 140.285 61.2692ZM130.489 76.4016C124.548 76.4016 121.659 74.043 121.659 69.2012C121.659 66.7337 122.406 64.9044 123.893 63.7679C125.389 62.6158 127.608 62.032 130.497 62.032C136.439 62.032 139.328 64.3751 139.328 69.2012C139.328 74.0274 136.439 76.4016 130.497 76.4016H130.489Z" fill="white"/>
<path d="M170.858 65.2236C170.858 63.0907 170.141 61.495 168.732 60.483C167.346 59.4789 165.376 58.9729 162.884 58.9729H147.675V79.453H151.701V72.673H163.966C164.721 72.673 165.298 72.7431 165.664 72.8754C166.006 73 166.24 73.2101 166.372 73.5215C166.513 73.8484 166.583 74.3622 166.583 75.0394V79.453H170.585V74.152C170.585 73.0856 170.313 72.206 169.775 71.5443C169.331 71.0072 168.716 70.6258 167.945 70.4234C169.869 69.427 170.842 67.6834 170.842 65.2236H170.858ZM165.905 68.0648C165.453 68.5396 164.932 68.8354 164.332 68.9366C163.709 69.0456 162.899 69.1079 161.949 69.1079H151.717V62.577H161.949C162.907 62.577 163.709 62.6315 164.332 62.7482C164.932 62.8572 165.461 63.153 165.905 63.62C166.349 64.0871 166.567 64.8344 166.567 65.823C166.567 66.8116 166.341 67.59 165.905 68.057V68.0648Z" fill="white"/>
<path d="M194.134 58.9807L179.502 70.4312V58.9807H175.468V79.453H179.502V75.4442L185.575 70.7036L194.757 79.453H200.464L188.721 68.2127L200.542 58.9807H194.134Z" fill="white"/>
<path d="M210.323 61.7363H209.209V63.3476H210.346C210.712 63.3476 211.008 63.2775 211.226 63.1374C211.444 62.9973 211.553 62.8027 211.553 62.5458C211.553 62.2889 211.468 62.0943 211.289 61.9542C211.117 61.8141 210.79 61.7363 210.323 61.7363Z" fill="white"/>
<path d="M214.38 61.7207C214.146 61.1758 213.827 60.701 213.414 60.2962C213.01 59.8914 212.534 59.5723 211.989 59.3309C211.444 59.0974 210.86 58.9807 210.245 58.9807C209.63 58.9807 209.046 59.0974 208.501 59.3309C207.956 59.5645 207.488 59.8836 207.083 60.2962C206.679 60.701 206.359 61.1758 206.118 61.7207C205.884 62.2656 205.767 62.8494 205.767 63.4643C205.767 64.0793 205.884 64.6631 206.118 65.208C206.352 65.7529 206.671 66.2199 207.083 66.6247C207.488 67.0295 207.963 67.3486 208.501 67.5899C209.038 67.8235 209.622 67.9402 210.245 67.9402C210.868 67.9402 211.444 67.8235 211.989 67.5899C212.534 67.3564 213.01 67.0373 213.414 66.6247C213.819 66.2199 214.139 65.7451 214.38 65.208C214.614 64.6709 214.73 64.0871 214.73 63.4643C214.73 62.8416 214.614 62.2656 214.38 61.7207ZM212.348 64.9044C212.371 65.0679 212.387 65.2158 212.387 65.3481V65.963H211.483V65.4649C211.483 65.0912 211.444 64.8188 211.366 64.6553C211.203 64.305 210.907 64.1338 210.479 64.1338H209.209V65.963H208.291V60.9656H210.409C211.117 60.9656 211.631 61.0979 211.958 61.3704C212.285 61.6428 212.449 62.0009 212.449 62.4446C212.449 62.7404 212.363 63.0051 212.184 63.2386C212.013 63.4721 211.771 63.6356 211.468 63.729C211.95 63.8691 212.239 64.2583 212.348 64.9044Z" fill="white"/>
</g>
<defs>
<clipPath id="clip0_139_199">
<rect width="240.887" height="82.59" fill="white"/>
</clipPath>
</defs>
</svg>
