<?xml version="1.0" encoding="UTF-8"?>
<svg id="Layer_1" data-name="Layer 1" xmlns="http://www.w3.org/2000/svg" version="1.1" viewBox="0 0 113.4 113.4">
  <defs>
    <style>
      .cls-1 {
        fill: none;
        stroke: #252528;
        stroke-miterlimit: 10;
        stroke-width: 2px;
      }
    </style>
  </defs>
  <circle class="cls-1" cx="32.2" cy="35.3" r="3.2"/>
  <circle class="cls-1" cx="55.7" cy="35.3" r="3.2"/>
  <circle class="cls-1" cx="64.6" cy="49.1" r="3.2"/>
  <circle class="cls-1" cx="64" cy="64" r="3.2"/>
  <circle class="cls-1" cx="79.4" cy="75.9" r="3.2"/>
  <circle class="cls-1" cx="56" cy="78.1" r="3.2"/>
  <circle class="cls-1" cx="32.2" cy="78.1" r="3.2"/>
  <circle class="cls-1" cx="87.5" cy="64" r="3.2"/>
  <circle class="cls-1" cx="87.5" cy="49.1" r="3.2"/>
  <circle class="cls-1" cx="79.1" cy="37.1" r="3.2"/>
  <circle class="cls-1" cx="76.9" cy="56.6" r="3.2"/>
  <line class="cls-1" x1="37.9" y1="35.3" x2="52.5" y2="35.3"/>
  <line class="cls-1" x1="31.2" y1="42.4" x2="45.9" y2="42.4"/>
  <line class="cls-1" x1="45.5" y1="49.6" x2="61.5" y2="49.6"/>
  <line class="cls-1" x1="70.7" y1="49.1" x2="84.6" y2="49.1"/>
  <line class="cls-1" x1="70.7" y1="64" x2="84.5" y2="64"/>
  <polyline class="cls-1" points="37.9 42.4 61.7 42.4 67 37.1 76 37.1"/>
  <polyline class="cls-1" points="31.2 71.2 61.7 71.2 67 76.5 76 76.5"/>
  <line class="cls-1" x1="37.9" y1="78.4" x2="52.5" y2="78.4"/>
  <line class="cls-1" x1="38.8" y1="49.1" x2="42.6" y2="49.1"/>
  <line class="cls-1" x1="25.7" y1="49.1" x2="36.5" y2="49.1"/>
  <line class="cls-1" x1="45.5" y1="64" x2="61.5" y2="64"/>
  <line class="cls-1" x1="38.8" y1="64" x2="42.6" y2="64"/>
  <line class="cls-1" x1="25.7" y1="64" x2="36.5" y2="64"/>
  <line class="cls-1" x1="22.7" y1="56.8" x2="73.7" y2="56.8"/>
</svg>